<?xml version="1.0" standalone="no"?>
<!DOCTYPE svg PUBLIC "-//W3C//DTD SVG 20010904//EN"
 "http://www.w3.org/TR/2001/REC-SVG-20010904/DTD/svg10.dtd">
<svg version="1.0" xmlns="http://www.w3.org/2000/svg"
 width="1150.000000pt" height="1150.000000pt" viewBox="0 0 1150.000000 1150.000000"
 preserveAspectRatio="xMidYMid meet">
<metadata>
Created by potrace 1.11, written by Peter Selinger 2001-2013
</metadata>
<g transform="translate(0.000000,1150.000000) scale(0.100000,-0.100000)"
fill="#000000" stroke="none">
<path d="M5415 11304 c-441 -34 -794 -94 -1169 -199 -772 -216 -1470 -588
-2099 -1117 -171 -145 -493 -467 -635 -636 -746 -887 -1175 -1897 -1299 -3058
-25 -241 -25 -847 0 -1088 100 -932 391 -1752 893 -2517 338 -515 815 -1022
1309 -1390 358 -266 780 -510 1168 -673 967 -409 2059 -536 3096 -360 1755
296 3270 1424 4056 3019 159 321 266 598 360 928 139 485 203 917 212 1437 7
385 -14 680 -73 1029 -165 982 -591 1896 -1244 2671 -147 174 -468 496 -638
638 -884 743 -1894 1173 -3047 1297 -142 16 -763 29 -890 19z m2048 -3030 c66
-22 158 -109 194 -182 l28 -57 3 -2140 c2 -2363 7 -2192 -61 -2291 -110 -161
-371 -201 -514 -79 -43 37 -93 124 -113 198 -7 26 -16 50 -21 52 -4 3 -43 -18
-86 -46 -108 -70 -279 -152 -409 -194 -170 -56 -310 -77 -509 -77 -258 0 -445
39 -706 148 -811 340 -1231 1272 -953 2114 92 279 294 587 508 771 341 297
836 461 1265 421 287 -27 526 -105 770 -252 65 -38 121 -70 124 -70 4 0 8 327
9 728 l3 727 26 50 c26 49 114 141 156 164 78 41 192 48 286 15z m1519 -10
c58 -20 127 -76 167 -134 136 -200 29 -476 -208 -536 -168 -42 -351 53 -412
216 -28 75 -24 204 9 271 83 169 268 246 444 183z m-6440 -1386 c91 -42 146
-114 183 -241 9 -31 19 -57 22 -57 3 0 51 28 107 62 243 148 488 231 766 259
144 14 224 7 294 -26 99 -47 185 -165 201 -276 8 -55 -8 -148 -35 -204 -39
-80 -142 -162 -225 -179 -16 -3 -88 -10 -160 -16 -205 -15 -374 -74 -520 -182
-219 -163 -347 -356 -402 -608 l-27 -125 -5 -785 -6 -785 -28 -60 c-131 -280
-514 -281 -643 -2 l-29 62 0 1460 0 1460 26 56 c47 99 128 171 232 205 63 21
183 12 249 -18z m6460 3 c74 -35 134 -95 170 -169 l33 -67 0 -1470 0 -1470
-28 -57 c-37 -75 -129 -160 -199 -184 -68 -24 -168 -24 -236 0 -70 24 -162
109 -199 184 l-28 57 0 1475 0 1475 23 45 c45 92 129 168 216 196 62 21 191
13 248 -15z"/>
<path d="M5850 6254 c-253 -38 -412 -109 -598 -263 -125 -104 -258 -307 -310
-471 -42 -133 -47 -172 -46 -340 1 -144 4 -177 27 -262 100 -375 394 -671 764
-768 486 -128 1002 101 1226 545 82 164 117 310 117 492 0 532 -384 979 -910
1058 -88 14 -210 17 -270 9z"/>
</g>
</svg>
